<?xml version="1.0" encoding="UTF-8"?><svg id="Layer_1" xmlns="http://www.w3.org/2000/svg" viewBox="0 0 506.15 67.29"><defs><style>.cls-1{fill:#ff777e;}.cls-2{fill:#231f20;}</style></defs><path class="cls-1" d="M55.72,27.86c0,.93-.09,1.89-.26,2.85-.07,.38-.18,.74-.34,1.08l-3.9-1.82-8.5-3.97-2.43,5.2c-2.59,5.52-8.16,11.92-12.44,16.37-1.81-1.88-3.79-4.05-5.68-6.34l-3.66-4.43-7.61,6.28-3.32,2.74c-.06-.07-.12-.14-.18-.23C2.42,38.63,0,32.84,0,27.86,0,12.5,12.5,0,27.86,0s27.86,12.5,27.86,27.86Z"/><path class="cls-2" d="M53.3,37.28c-6.01,12.85-21.92,26.92-22.6,27.51l-2.84,2.49-2.84-2.49c-.3-.26-7.38-6.52-13.91-14.43l6.64-5.48c3.64,4.42,7.55,8.35,10.11,10.8,4.66-4.47,13.79-13.83,17.64-22.05l7.8,3.65Z"/><g><path class="cls-2" d="M97.14,54.82c-2.13,0-4.06-.45-5.79-1.35s-3.17-2.15-4.3-3.75c-1.13-1.6-1.91-3.39-2.32-5.38l.97-1.25-.55,11.03h-8.39V4.25h9.5V29.22l-.9-1.46c.74-2.59,2.15-4.74,4.23-6.45,2.08-1.71,4.69-2.57,7.84-2.57,2.78,0,5.26,.72,7.46,2.15,2.2,1.43,3.93,3.49,5.2,6.17,1.27,2.68,1.91,5.94,1.91,9.78s-.64,6.96-1.91,9.64c-1.27,2.68-3.03,4.74-5.27,6.17-2.24,1.43-4.8,2.15-7.67,2.15Zm-2.84-7.28c2.54,0,4.54-.91,6-2.74,1.46-1.83,2.19-4.5,2.19-8.01s-.72-6.19-2.15-8.01c-1.43-1.83-3.42-2.74-5.97-2.74-1.67,0-3.1,.44-4.3,1.32-1.2,.88-2.14,2.13-2.81,3.75-.67,1.62-1.01,3.54-1.01,5.76s.33,4.14,1.01,5.76c.67,1.62,1.62,2.84,2.84,3.68s2.62,1.25,4.2,1.25Z"/><path class="cls-2" d="M129.32,54.82c-2.31,0-4.39-.42-6.24-1.25s-3.32-2.16-4.41-3.99c-1.09-1.83-1.63-4.2-1.63-7.11V19.44h9.5v20.74c0,2.68,.56,4.54,1.67,5.58,1.11,1.04,2.71,1.56,4.79,1.56,.97,0,1.92-.17,2.84-.52,.92-.35,1.75-.89,2.46-1.63,.72-.74,1.28-1.7,1.7-2.88,.42-1.18,.62-2.58,.62-4.2V19.44h9.5V54.13h-8.46l-.35-6.04c-1.16,2.31-2.74,4.01-4.75,5.1-2.01,1.09-4.43,1.63-7.25,1.63Z"/><path class="cls-2" d="M173.34,19.09c3.1,0,5.72,.45,7.87,1.35,2.15,.9,3.89,2.13,5.2,3.68,1.32,1.55,2.25,3.27,2.81,5.17l-8.88,3.19c-.46-2.08-1.25-3.65-2.36-4.72-1.11-1.06-2.61-1.6-4.51-1.6-1.76,0-3.26,.41-4.51,1.21-1.25,.81-2.2,2.04-2.84,3.68-.65,1.64-.97,3.69-.97,6.14s.33,4.49,1.01,6.1c.67,1.62,1.64,2.82,2.91,3.61,1.27,.79,2.76,1.18,4.47,1.18,1.39,0,2.57-.24,3.54-.73,.97-.49,1.77-1.19,2.39-2.12,.62-.92,1.05-2.03,1.28-3.33l8.6,2.77c-.51,2.08-1.46,3.91-2.84,5.48-1.39,1.57-3.17,2.8-5.34,3.68-2.17,.88-4.7,1.32-7.56,1.32-3.56,0-6.71-.72-9.43-2.15-2.73-1.43-4.83-3.49-6.31-6.17-1.48-2.68-2.22-5.92-2.22-9.71s.74-7.03,2.22-9.71c1.48-2.68,3.56-4.74,6.24-6.17,2.68-1.43,5.76-2.15,9.23-2.15Z"/><path class="cls-2" d="M204.75,4.25V54.13h-9.5V4.25h9.5Zm25.81,15.19l-16.03,16.72-1.87,.9-10.41,11.17-.14-10.13,17.62-18.66h10.82Zm-14.71,11.03l15.54,23.66h-10.75l-11.31-18.11,6.52-5.55Z"/><path class="cls-2" d="M248.44,54.82c-3.65,0-6.83-.72-9.54-2.15-2.71-1.43-4.8-3.49-6.28-6.17-1.48-2.68-2.22-5.92-2.22-9.71s.74-7.03,2.22-9.71c1.48-2.68,3.55-4.74,6.21-6.17,2.66-1.43,5.7-2.15,9.12-2.15s6.5,.71,8.95,2.12c2.45,1.41,4.32,3.33,5.62,5.76,1.29,2.43,1.94,5.19,1.94,8.29,0,.93-.02,1.8-.07,2.64-.05,.83-.12,1.57-.21,2.22h-27.68v-6.59h23.52l-4.58,1.67c0-2.91-.66-5.16-1.98-6.73-1.32-1.57-3.18-2.36-5.58-2.36-1.76,0-3.27,.42-4.54,1.25-1.27,.83-2.23,2.07-2.88,3.71-.65,1.64-.97,3.71-.97,6.21s.36,4.47,1.08,6.07,1.73,2.79,3.05,3.57c1.32,.79,2.9,1.18,4.75,1.18,2.04,0,3.68-.39,4.93-1.18,1.25-.79,2.22-1.87,2.91-3.26l7.56,2.91c-.74,1.8-1.86,3.35-3.37,4.65-1.5,1.3-3.28,2.28-5.34,2.95-2.06,.67-4.27,1.01-6.63,1.01Z"/><path class="cls-2" d="M295.27,19.44v7.08h-26.99v-7.08h26.99Zm-11.1-10.61V42.82c0,1.67,.43,2.88,1.28,3.64s2.02,1.14,3.5,1.14c1.2,0,2.23-.17,3.09-.52,.86-.35,1.63-.82,2.32-1.42l1.53,6.31c-1.11,.88-2.5,1.57-4.16,2.08s-3.42,.76-5.27,.76c-2.31,0-4.36-.35-6.14-1.04-1.78-.69-3.17-1.8-4.16-3.33-1-1.53-1.49-3.56-1.49-6.11V11.46l9.5-2.64Z"/><path class="cls-2" d="M311.09,4.25V43.45c0,1.62,.28,2.75,.83,3.4,.55,.65,1.48,.97,2.78,.97,.79,0,1.43-.06,1.94-.17,.51-.11,1.16-.29,1.94-.52l-.83,6.24c-.79,.46-1.77,.82-2.95,1.08-1.18,.25-2.35,.38-3.5,.38-3.38,0-5.84-.82-7.39-2.46-1.55-1.64-2.32-4.27-2.32-7.87V4.25h9.5Z"/><rect class="cls-2" x="323.85" y="19.44" width="9.5" height="34.69"/><path class="cls-2" d="M357.29,54.82c-3.52,0-6.72-.62-9.61-1.87-2.89-1.25-5.24-3.01-7.04-5.27l5.48-5.55c1.11,1.67,2.59,3.03,4.44,4.09,1.85,1.06,4.05,1.6,6.59,1.6,1.8,0,3.25-.27,4.34-.8,1.09-.53,1.63-1.38,1.63-2.53,0-.74-.25-1.38-.76-1.91-.51-.53-1.53-.96-3.05-1.28l-6.1-1.25c-4.02-.83-6.88-2.09-8.57-3.78-1.69-1.69-2.53-3.87-2.53-6.56,0-1.9,.57-3.68,1.7-5.34,1.13-1.67,2.83-3.02,5.1-4.06,2.27-1.04,5.09-1.56,8.46-1.56s6.49,.54,9.05,1.63c2.57,1.09,4.59,2.69,6.07,4.82l-5.69,5.55c-1.02-1.62-2.35-2.85-3.99-3.71-1.64-.86-3.37-1.28-5.17-1.28-1.29,0-2.41,.14-3.33,.42-.93,.28-1.62,.66-2.08,1.14-.46,.49-.69,1.1-.69,1.84s.32,1.38,.97,1.91c.65,.53,1.83,.98,3.54,1.35l7.08,1.46c3.42,.69,5.87,1.86,7.35,3.5,1.48,1.64,2.22,3.62,2.22,5.93s-.59,4.2-1.77,5.93c-1.18,1.73-2.91,3.1-5.2,4.09-2.29,.99-5.1,1.49-8.43,1.49Z"/><path class="cls-2" d="M403.64,19.44v7.08h-26.99v-7.08h26.99Zm-11.1-10.61V42.82c0,1.67,.43,2.88,1.28,3.64s2.02,1.14,3.5,1.14c1.2,0,2.23-.17,3.09-.52,.86-.35,1.63-.82,2.32-1.42l1.53,6.31c-1.11,.88-2.5,1.57-4.16,2.08s-3.42,.76-5.27,.76c-2.31,0-4.36-.35-6.14-1.04-1.78-.69-3.17-1.8-4.16-3.33-1-1.53-1.49-3.56-1.49-6.11V11.46l9.5-2.64Z"/><circle class="cls-1" cx="328.61" cy="8.9" r="5.36"/><g><path class="cls-2" d="M427.18,55.23c-3.71,0-6.94-.73-9.68-2.18-2.75-1.46-4.87-3.54-6.38-6.27-1.5-2.72-2.25-6.01-2.25-9.86s.75-7.14,2.25-9.86c1.5-2.72,3.6-4.81,6.3-6.27,2.7-1.46,5.79-2.18,9.26-2.18s6.6,.72,9.09,2.15c2.49,1.43,4.39,3.38,5.71,5.85,1.31,2.46,1.97,5.27,1.97,8.42,0,.94-.02,1.83-.07,2.68s-.12,1.6-.21,2.25h-28.1v-6.69h23.88l-4.65,1.69c0-2.96-.67-5.24-2.01-6.83-1.34-1.6-3.23-2.4-5.67-2.4-1.79,0-3.32,.42-4.61,1.27-1.29,.85-2.27,2.1-2.92,3.77-.66,1.67-.99,3.77-.99,6.3s.36,4.54,1.09,6.16c.73,1.62,1.76,2.83,3.1,3.63,1.34,.8,2.95,1.2,4.83,1.2,2.07,0,3.73-.4,5-1.2,1.27-.8,2.25-1.9,2.96-3.31l7.68,2.96c-.75,1.83-1.89,3.4-3.42,4.72-1.53,1.32-3.33,2.31-5.42,2.99-2.09,.68-4.33,1.02-6.73,1.02Z"/><path class="cls-2" d="M449.62,54.52V19.31h8.38l.63,6.9c.94-2.44,2.31-4.32,4.12-5.63,1.81-1.31,4.07-1.97,6.8-1.97,.8,0,1.53,.07,2.18,.21,.66,.14,1.2,.33,1.62,.56l-1.13,8.1c-.47-.19-1.05-.33-1.73-.42-.68-.09-1.56-.14-2.64-.14-1.41,0-2.77,.34-4.08,1.02-1.32,.68-2.39,1.71-3.24,3.1-.84,1.39-1.27,3.13-1.27,5.25v18.24h-9.65Z"/><path class="cls-2" d="M490.51,55.23c-3.57,0-6.82-.63-9.75-1.9-2.94-1.27-5.32-3.05-7.15-5.35l5.56-5.63c1.13,1.69,2.63,3.08,4.51,4.16,1.88,1.08,4.11,1.62,6.69,1.62,1.83,0,3.3-.27,4.4-.81,1.1-.54,1.66-1.4,1.66-2.57,0-.75-.26-1.4-.77-1.94-.52-.54-1.55-.97-3.1-1.3l-6.2-1.27c-4.08-.85-6.98-2.12-8.7-3.84-1.71-1.71-2.57-3.93-2.57-6.66,0-1.92,.57-3.73,1.73-5.42,1.15-1.69,2.88-3.06,5.18-4.12,2.3-1.06,5.16-1.58,8.59-1.58s6.59,.55,9.19,1.66c2.61,1.1,4.66,2.74,6.16,4.9l-5.78,5.63c-1.03-1.64-2.38-2.9-4.05-3.77-1.67-.87-3.42-1.3-5.25-1.3-1.31,0-2.44,.14-3.38,.42s-1.64,.67-2.11,1.16c-.47,.49-.71,1.12-.71,1.87s.33,1.4,.99,1.94c.66,.54,1.85,1,3.59,1.37l7.18,1.48c3.47,.7,5.96,1.89,7.47,3.56,1.5,1.67,2.25,3.67,2.25,6.02s-.6,4.26-1.8,6.02c-1.2,1.76-2.96,3.15-5.28,4.16s-5.18,1.51-8.56,1.51Z"/></g></g></svg>