<?xml version="1.0" encoding="UTF-8" standalone="no"?>
<svg
   xmlns:dc="http://purl.org/dc/elements/1.1/"
   xmlns:cc="http://creativecommons.org/ns#"
   xmlns:rdf="http://www.w3.org/1999/02/22-rdf-syntax-ns#"
   xmlns:svg="http://www.w3.org/2000/svg"
   xmlns="http://www.w3.org/2000/svg"
   xmlns:sodipodi="http://sodipodi.sourceforge.net/DTD/sodipodi-0.dtd"
   xmlns:inkscape="http://www.inkscape.org/namespaces/inkscape"
   width="1241.006"
   height="540"
   viewBox="0 0 1241.006 540"
   version="1.1"
   id="svg6"
   sodipodi:docname="Fts-new-york-a.svg"
   inkscape:version="1.0 (4035a4fb49, 2020-05-01)">
  <metadata
     id="metadata12">
    <rdf:RDF>
      <cc:Work
         rdf:about="">
        <dc:format>image/svg+xml</dc:format>
        <dc:type
           rdf:resource="http://purl.org/dc/dcmitype/StillImage" />
        <dc:title>logo/4-color/new-york</dc:title>
      </cc:Work>
    </rdf:RDF>
  </metadata>
  <defs
     id="defs10" />
  <sodipodi:namedview
     inkscape:pagecheckerboard="true"
     inkscape:document-rotation="0"
     pagecolor="#ffffff"
     bordercolor="#666666"
     borderopacity="1"
     objecttolerance="10"
     gridtolerance="10"
     guidetolerance="10"
     inkscape:pageopacity="0"
     inkscape:pageshadow="2"
     inkscape:window-width="1280"
     inkscape:window-height="961"
     id="namedview8"
     showgrid="false"
     inkscape:zoom="0.75538041"
     inkscape:cx="622.17642"
     inkscape:cy="238.08779"
     inkscape:window-x="-8"
     inkscape:window-y="-8"
     inkscape:window-maximized="1"
     inkscape:current-layer="svg6" />
  <title
     id="title2">logo/4-color/new-york</title>
  <g
     transform="scale(9.999588,10)"
     id="logo/4-color/new-york"
     stroke="none"
     stroke-width="1"
     fill="none"
     fill-rule="evenodd"
     style="fill:#000000">
    <path
       d="m 84.984793,47.011429 c 0.287887,0.945326 0.287887,1.954949 0,2.900275 -0.107138,0.328146 -0.286974,0.627872 -0.526097,0.876827 -0.183958,0.202577 -0.415895,0.355655 -0.674482,0.445158 -0.435636,0.158793 -0.913329,0.158793 -1.348965,0 -0.258588,-0.0895 -0.490524,-0.242581 -0.674483,-0.445158 -0.229656,-0.256067 -0.408228,-0.553687 -0.526096,-0.876827 -0.287887,-0.945326 -0.287887,-1.954949 0,-2.900275 0.120997,-0.321638 0.299238,-0.618707 0.526096,-0.876827 0.187739,-0.198119 0.418509,-0.350427 0.674483,-0.445159 0.435636,-0.158792 0.913329,-0.158792 1.348965,0 0.255974,0.09473 0.486744,0.24704 0.674482,0.445159 0.235951,0.251367 0.415338,0.550345 0.526097,0.876827 z M 44.961002,26.776954 V 11.520161 C 44.942971,9.7643755 43.570583,8.3213063 41.817914,8.2151966 40.0574,8.2951436 38.678143,9.7579915 38.701805,11.520161 v 15.256793 c -0.0072,0.833608 0.317087,1.635926 0.901478,2.230435 0.58439,0.59451 1.381022,0.932508 2.214631,0.939633 1.73212,-0.0071 3.140724,-1.397713 3.170067,-3.129599 z m 55.833658,18.88551 h -1.497349 v 2.090896 h 1.699699 c 0.16162,0.01269 0.324,0.01269 0.48562,0 0.16032,-0.01412 0.31622,-0.05998 0.45865,-0.134897 0.14106,-0.0784 0.26132,-0.189406 0.35073,-0.323751 0.26686,-0.439581 0.18174,-1.007025 -0.20234,-1.348965 -0.38771,-0.209248 -0.83045,-0.294028 -1.26803,-0.242814 z M 9.5236926,43.166879 H 6.4480525 v 5.665653 L 3.3454331,43.166879 H 0 v 10.535416 h 3.1026194 v -5.733101 l 3.2375159,5.760081 h 3.156578 z M 10.79172,25.900127 H 21.394584 V 15.445649 H 10.872658 v -4.99117 H 23.795742 L 23.067301,0 H 0 V 38.310605 H 10.79172 Z M 26.318306,51.031345 H 20.679633 V 49.68238 h 4.950701 v -2.468606 h -4.950701 v -1.348965 h 5.476798 v -2.69793 h -8.727804 v 10.535416 h 8.889679 z M 41.817914,37.771019 C 51.997145,37.667229 60.166747,29.334597 60.06941,19.155302 60.249948,12.513932 56.809972,6.2983096 51.086581,2.9244113 c -5.723392,-3.37389829 -12.827432,-3.37389829 -18.550824,0 -5.723391,3.3738983 -9.163367,9.5895207 -8.982829,16.2308907 -0.04673,4.890751 1.851409,9.59973 5.276805,13.090903 3.425397,3.491172 8.097426,5.478525 12.988181,5.524814 z m 5.76008,5.39586 h -3.277985 l -1.348965,6.596438 -1.227558,-6.596438 h -2.873295 l -1.268027,6.515501 -1.308496,-6.515501 h -3.197047 l 2.873295,10.535416 h 3.170068 l 1.106151,-6.421073 1.14662,6.421073 h 3.143089 z m 23.917149,0 h -3.561268 l -1.834592,3.911998 -1.753654,-3.911998 h -3.642206 l 3.763613,6.744825 v 3.871529 h 3.251005 v -3.871529 z m 16.983469,5.274453 c 0.0066,-0.759597 -0.125953,-1.513981 -0.3912,-2.225792 -0.240532,-0.63399 -0.607725,-1.21232 -1.079172,-1.699696 -0.474587,-0.497235 -1.049324,-0.888056 -1.686206,-1.146621 -0.692266,-0.287081 -1.435976,-0.429396 -2.185323,-0.418179 -0.749583,-0.01394 -1.493844,0.128483 -2.185324,0.418179 -0.6427,0.255018 -1.222553,0.646189 -1.699695,1.146621 -0.476121,0.49924 -0.843577,1.091762 -1.079172,1.740165 -0.521665,1.433376 -0.521665,3.004718 0,4.438094 0.238746,0.650879 0.605719,1.24721 1.079172,1.753655 0.48163,0.491763 1.060517,0.877688 1.699695,1.13313 0.69148,0.289696 1.435741,0.432117 2.185324,0.418179 0.749347,0.01122 1.493057,-0.131097 2.185323,-0.418179 0.633446,-0.258794 1.207273,-0.644405 1.686206,-1.13313 0.473452,-0.506445 0.840425,-1.102776 1.079172,-1.753655 0.26584,-0.711649 0.398448,-1.466145 0.3912,-2.225792 z M 89.207053,38.202688 77.673402,18.345924 88.15486,0 H 76.60772 L 71.805405,8.2556656 67.111007,0 H 55.145688 L 65.84298,18.48082 54.525164,38.243157 h 11.574119 l 5.544246,-9.685569 5.598205,9.672079 z m 16.794617,15.526587 c -0.0805,-0.147005 -0.13522,-0.306684 -0.16188,-0.472138 0,-0.202345 -0.0809,-0.418179 -0.10792,-0.634014 -0.027,-0.215834 0,-0.445158 0,-0.647503 0.009,-0.16625 0.009,-0.332867 0,-0.499117 -0.0413,-0.593571 -0.21657,-1.170068 -0.5126,-1.686206 -0.23197,-0.431204 -0.60969,-0.765893 -1.06568,-0.944276 0.26163,-0.09284 0.50067,-0.239949 0.70146,-0.431669 0.20233,-0.180371 0.37128,-0.394992 0.49911,-0.634013 0.25354,-0.487122 0.38326,-1.029166 0.37771,-1.578289 0.015,-0.464418 -0.0773,-0.926035 -0.26979,-1.348965 -0.18232,-0.364561 -0.43977,-0.686379 -0.75542,-0.944276 -0.32798,-0.251786 -0.69789,-0.443593 -1.09266,-0.566565 -0.43652,-0.135312 -0.89207,-0.199088 -1.34897,-0.188855 h -6.205235 v 10.535416 h 3.237516 V 50.06009 h 1.740169 c 0.26354,-0.01675 0.5262,0.04423 0.75542,0.175365 0.17941,0.116793 0.32391,0.27993 0.41817,0.472138 0.0975,0.210002 0.16555,0.43242 0.20235,0.660993 l 0.0809,0.741931 c 0,0.269793 0,0.553075 0.0809,0.822868 0.0422,0.269796 0.10534,0.535896 0.18885,0.79589 z m 18.08962,0 -4.45159,-6.421074 3.83106,-4.046895 h -4.04689 l -2.90028,3.628716 v -3.723143 h -3.21053 v 10.535416 h 3.251 v -3.08913 l 0.90381,-0.984744 2.6035,4.046895 z m 0,-29.906554 c 0,-3.84455 -3.2645,-11.425733 -11.14245,-12.423967 -2.72531,-0.501932 -5.52649,-0.414539 -8.2152,0.256303 0.35073,-1.348965 0.72844,-2.6979296 0.87683,-3.2510053 h 16.87555 L 123.9429,0 H 97.719022 l -5.598205,21.920681 h 9.280883 l 0.18885,-0.350731 c 1.43116,-2.24397 3.96689,-3.535073 6.62342,-3.372413 4.86976,0 7.06858,3.547778 7.06858,6.056853 -0.13826,3.528583 -3.05175,6.310727 -6.58295,6.286177 -4.84279,0 -7.13603,-2.940744 -7.72957,-4.667419 l -0.17537,-0.512607 -8.754781,1.106152 0.121407,0.687972 c 0.463924,2.052467 1.422531,3.960418 2.792358,5.557735 2.077406,2.509075 6.124306,5.503777 13.489646,5.503777 6.16477,0 10.61636,-1.955999 13.21986,-5.827528 1.6265,-2.558493 2.47474,-5.534381 2.44163,-8.565928 z"
       id="fts-new-york-c-copy"
       fill="#FFFFFF"
       style="fill:#000000" />
  </g>
</svg>
