<svg width="260" height="60" viewBox="0 0 260 60" fill="none" xmlns="http://www.w3.org/2000/svg">
<g clip-path="url(#clip0_500_1747)">
<path d="M216.045 39.7495L215.08 40.7491L207.25 48.8913C207.049 49.1119 206.831 49.3167 206.599 49.504C205.623 50.2726 204.668 50.106 204.001 49.0526C203.633 48.4775 203.34 47.8487 202.935 47.2951C202.06 46.0805 201.159 44.882 200.23 43.7104C199.825 43.2544 199.39 42.8253 198.929 42.4259C198.54 42.7914 198.716 43.2428 198.716 43.6298C198.716 48.0959 198.716 52.5674 198.716 57.0336C198.716 57.4152 198.716 57.8075 198.716 58.1891C198.705 58.6081 198.53 59.0058 198.228 59.2945C197.926 59.5833 197.523 59.7395 197.108 59.7289C196.692 59.7182 196.297 59.5414 196.01 59.2376C195.724 58.9337 195.569 58.5275 195.579 58.1085C195.542 57.5119 195.579 56.91 195.579 56.308V39.814C195.579 39.0293 195.521 38.2016 196.411 37.8415C197.302 37.4814 198.246 37.374 199.078 38.0673C199.792 38.6125 200.462 39.2126 201.084 39.8623C202.572 41.5714 203.985 43.3396 205.426 45.0863C205.559 45.2475 205.682 45.4141 205.879 45.6559C206.166 45.4108 206.44 45.1507 206.7 44.8766C209.517 41.8311 212.329 38.7856 215.139 35.7401C215.313 35.553 215.477 35.3556 215.629 35.149C215.816 34.8565 216.094 34.6347 216.419 34.518C216.744 34.4013 217.098 34.3964 217.427 34.504C217.738 34.5861 218.017 34.7607 218.229 35.0052C218.44 35.2497 218.573 35.5526 218.611 35.8745C218.995 37.7609 219.411 39.6366 219.811 41.5338C220.639 45.475 221.464 49.4163 222.286 53.3575C222.35 53.6064 222.396 53.8597 222.425 54.1153C222.458 54.3172 222.452 54.5238 222.406 54.7232C222.36 54.9226 222.275 55.1109 222.156 55.2772C222.038 55.4435 221.888 55.5846 221.715 55.6924C221.543 55.8001 221.35 55.8723 221.15 55.905C220.951 55.9504 220.744 55.955 220.543 55.9183C220.342 55.8817 220.151 55.8047 219.98 55.6918C219.809 55.579 219.663 55.4326 219.55 55.2614C219.436 55.0903 219.358 54.8979 219.32 54.6957C218.963 53.2392 218.68 51.7667 218.365 50.2994C217.686 47.107 217.011 43.9164 216.339 40.7276C216.28 40.4643 216.179 40.1955 216.045 39.7495Z" fill="#F4ECD6"/>
<path d="M10.0422 47.4828C11.8344 48.2406 13.5252 48.9339 15.2 49.6702C15.9785 50.0154 16.7387 50.4011 17.4776 50.8257C18.475 51.3632 18.7364 52.2069 18.2616 53.0615C17.7869 53.916 16.9655 54.1364 15.9521 53.6742C14.1706 52.8572 12.3944 52.0618 10.6183 51.2342C10.2342 51.0568 9.81819 50.9601 9.24214 50.7666C9.24165 51.1548 9.2666 51.5426 9.31682 51.9275C9.55151 53.0615 9.85019 54.1847 10.0742 55.3187C10.2982 56.4527 9.85553 57.1568 8.89544 57.3771C8.68887 57.4378 8.47173 57.453 8.25881 57.4216C8.04589 57.3903 7.84218 57.3131 7.66152 57.1953C7.48086 57.0775 7.32748 56.9219 7.21182 56.739C7.09617 56.5562 7.02094 56.3504 6.99126 56.1356C6.59122 54.5233 6.27653 52.8734 5.9245 51.2396C5.82315 50.7774 5.75381 50.3152 5.6578 49.7562L3.69496 49.294C2.62819 49.0468 2.26549 48.6545 2.24416 47.8053C2.22282 46.9561 2.64953 46.3703 3.61496 46.0532L4.95374 45.6287C5.04074 45.5856 5.12299 45.5333 5.1991 45.4728V40.7809C4.77128 40.8391 4.34001 40.8678 3.90831 40.8669C3.14943 40.8643 2.39302 40.7797 1.65209 40.6143C1.31973 40.5088 1.04131 40.2768 0.875981 39.9677C0.710648 39.6586 0.671427 39.2968 0.766677 38.959C0.878688 38.2603 1.44409 37.5724 2.11615 37.6261C4.54838 37.8411 6.82059 36.9328 9.18347 36.7017C10.7598 36.4895 12.3609 36.825 13.7225 37.653C15.7014 38.9106 16.6028 41.3614 15.8134 43.3392C15.2956 44.529 14.3615 45.4855 13.1892 46.0264C12.2077 46.5531 11.1837 46.9669 10.0422 47.4828ZM8.54341 44.3872C9.77722 44.1466 10.9551 43.6744 12.0157 42.9952C13.1945 42.2051 13.1465 41.1034 11.9251 40.3564C10.8583 39.7114 9.74885 39.8189 8.54341 40.0876V44.3872Z" fill="#F4ECD6"/>
<path d="M8.86346 16.7251C9.11415 17.9774 9.30616 19.0146 9.52485 20.0465C9.62086 20.5087 9.77021 20.9602 9.86088 21.4224C9.9183 21.6186 9.93613 21.8244 9.91333 22.0276C9.89053 22.2309 9.82755 22.4275 9.72812 22.6058C9.62869 22.7841 9.49482 22.9406 9.3344 23.066C9.17399 23.1913 8.99028 23.283 8.79412 23.3357C8.5937 23.4214 8.3768 23.4608 8.15929 23.4512C7.94178 23.4416 7.72915 23.3832 7.53694 23.2802C7.34472 23.1772 7.17777 23.0322 7.0483 22.8558C6.91883 22.6794 6.8301 22.4761 6.78859 22.2608C6.34589 20.5195 6.02053 18.7459 5.64716 16.9885C5.56182 16.5746 5.48715 16.1608 5.39647 15.704C4.6764 15.5481 4.00967 15.4192 3.35361 15.2633C2.38818 15.0268 2.04683 14.6399 2.01483 13.8122C1.9713 13.4225 2.07022 13.0302 2.29309 12.7086C2.51596 12.3871 2.84748 12.1585 3.2256 12.0655C3.75898 11.8774 4.35637 11.7323 4.97509 11.5281V6.76634C4.51105 6.76634 4.10567 6.83621 3.7003 6.82009C2.98483 6.83176 2.27002 6.77054 1.56677 6.63736C1.38619 6.59923 1.21498 6.52516 1.06316 6.41952C0.911339 6.31387 0.78197 6.17877 0.682623 6.02211C0.583277 5.86545 0.515946 5.69039 0.484591 5.50719C0.453236 5.32398 0.458472 5.1363 0.500006 4.95516C0.526717 4.58436 0.690657 4.23718 0.959342 3.98238C1.22803 3.72757 1.58186 3.58373 1.95081 3.57931C3.98833 3.72442 5.91385 3.13862 7.88204 2.79465C9.3115 2.54743 10.7943 2.42918 12.1491 3.02037C13.013 3.36693 13.8025 3.87786 14.4746 4.52522C14.9518 4.96352 15.324 5.50521 15.5632 6.10948C15.8024 6.71375 15.9024 7.36483 15.8557 8.0137C15.809 8.66257 15.6167 9.29228 15.2934 9.85542C14.9701 10.4186 14.5242 10.9004 13.9893 11.2647C13.1472 11.8434 12.2546 12.3435 11.3223 12.7588C10.869 12.9899 10.3783 13.1404 9.7222 13.3984C10.1329 13.5918 10.3943 13.7262 10.6663 13.8498C12.7998 14.8065 14.9334 15.747 17.0669 16.7198C17.3323 16.8031 17.5709 16.956 17.7584 17.1628C17.9458 17.3696 18.0753 17.6229 18.1337 17.8968C18.194 18.1919 18.1732 18.4981 18.0736 18.7822C17.9739 19.0663 17.7992 19.3176 17.5683 19.5091C17.3253 19.723 17.0227 19.8559 16.7018 19.8896C16.3809 19.9233 16.0576 19.8561 15.7761 19.6972C14.2026 18.9448 12.6291 18.1816 11.0397 17.4614C10.4583 17.2196 9.77021 17.0369 8.86346 16.7251ZM8.26607 10.6198C9.48123 10.1222 10.6704 9.56254 11.8291 8.94299C12.9332 8.27656 12.8958 7.1748 11.8291 6.45463C11.3025 6.12215 10.7061 5.91836 10.0874 5.85957C9.46876 5.80078 8.84504 5.88861 8.26607 6.11604V10.6198Z" fill="#F4ECD6"/>
<path d="M57.5453 46.0802H51.3421C51.0914 46.0802 50.846 46.1178 50.51 46.1447C50.4833 46.6122 50.4406 47.0261 50.4406 47.4399C50.4406 50.0626 50.4406 52.6853 50.4406 55.3027C50.4569 55.689 50.4354 56.076 50.3766 56.4582C50.2909 56.7945 50.0943 57.0915 49.8191 57.3005C49.5439 57.5095 49.2063 57.618 48.8618 57.6083C48.54 57.6295 48.2201 57.5445 47.9506 57.366C47.6811 57.1876 47.4767 56.9254 47.3684 56.6194C47.2579 56.206 47.2059 55.7791 47.2137 55.351C47.2137 52.7713 47.2137 50.197 47.2137 47.6172V46.0694C46.499 46.0694 45.9176 46.0694 45.3308 46.0694C45.1277 46.0801 44.9246 46.0479 44.7345 45.9749C44.5444 45.9019 44.3715 45.7897 44.2269 45.6455C44.0823 45.5014 43.9692 45.3283 43.8948 45.1376C43.8203 44.9468 43.7863 44.7425 43.7947 44.5377C43.7726 44.3333 43.7925 44.1265 43.8534 43.9302C43.9142 43.7339 44.0146 43.5523 44.1483 43.397C44.282 43.2416 44.4461 43.1157 44.6303 43.0271C44.8145 42.9386 45.0149 42.8893 45.2188 42.8824C45.8056 42.8071 46.4083 42.8179 47.1497 42.7803C47.1497 42.2966 47.2084 41.8451 47.2137 41.3883C47.2137 39.6685 47.2137 37.9487 47.2137 36.2342C47.2404 35.0411 47.7844 34.4661 48.7765 34.4392C49.7686 34.4123 50.4033 34.9766 50.4246 36.1267C50.4566 37.8895 50.4246 39.6524 50.4246 41.4152C50.4246 41.8344 50.462 42.2482 50.4886 42.748H57.4226C57.4546 42.2805 57.5026 41.829 57.5026 41.3776C57.5026 39.6147 57.5026 37.8519 57.5293 36.0945C57.5293 35.0196 58.0627 34.5198 58.9481 34.4499C59.1702 34.408 59.399 34.4187 59.6163 34.4812C59.8336 34.5437 60.0334 34.6564 60.2001 34.8102C60.3667 34.964 60.4955 35.1548 60.5763 35.3675C60.6571 35.5801 60.6877 35.8088 60.6656 36.0354C60.7029 37.7068 60.6656 39.3837 60.6656 41.0605V42.6406C61.6364 42.9792 62.6018 43.3016 62.4791 44.6076C62.3991 45.489 62.0524 45.833 60.6603 46.2199C60.6603 47.8322 60.6603 49.5252 60.6603 51.1966C60.6603 52.3629 59.9669 52.9487 58.8734 52.809C58.0093 52.7122 57.556 52.2393 57.5186 51.2396C57.476 50.0358 57.5186 48.8319 57.5186 47.6334L57.5453 46.0802Z" fill="#F4ECD6"/>
<path d="M251.025 12.4957C249.958 12.5709 248.944 12.63 247.931 12.716C247.398 12.759 246.827 12.888 246.277 12.8826C245.911 12.9024 245.551 12.7831 245.267 12.5483C244.984 12.3135 244.798 11.9803 244.747 11.6142C244.671 11.2284 244.742 10.8279 244.947 10.4929C245.152 10.158 245.475 9.91349 245.851 9.80845C248.102 9.26329 250.432 9.12679 252.731 9.40537C253.054 9.43815 253.357 9.57526 253.595 9.79616C253.834 10.0171 253.995 10.3099 254.054 10.6307C254.531 12.2395 254.676 13.9294 254.481 15.5967C253.985 18.8213 251.371 20.7293 248.203 20.0252C247.043 19.7554 245.933 19.3038 244.912 18.687C242.574 17.258 240.502 15.4282 238.789 13.2803C237.619 11.8934 236.821 10.2285 236.469 8.44334C236.119 6.70163 236.373 4.89162 237.189 3.31616C237.665 2.26962 238.441 1.39055 239.417 0.79198C240.394 0.193407 241.525 -0.0973201 242.666 -0.0428521C244.528 -0.0106056 246.4 0.317221 248.251 0.532198C248.93 0.600271 249.605 0.706127 250.273 0.849287C250.637 0.930532 250.961 1.1407 251.185 1.44171C251.409 1.74271 251.519 2.11465 251.495 2.49017C251.47 2.86569 251.313 3.21994 251.052 3.48878C250.79 3.75762 250.442 3.92326 250.07 3.9557C249.689 3.96966 249.308 3.94084 248.934 3.86972C247.243 3.64937 245.557 3.33228 243.861 3.21404C240.544 2.94532 238.757 5.24556 239.786 8.45946C240.057 9.31691 240.47 10.1219 241.008 10.8403C242.685 13.0761 244.818 14.9234 247.264 16.2578C247.788 16.545 248.35 16.755 248.934 16.8812C250.065 17.1123 250.71 16.7146 251.142 15.6397C251.478 14.7798 251.467 13.8339 251.025 12.4957Z" fill="#F4ECD6"/>
<path d="M171.503 42.1083V40.6465C171.503 38.8461 171.476 37.0403 171.503 35.2345C171.493 35.0287 171.527 34.8232 171.602 34.6316C171.677 34.44 171.792 34.2667 171.939 34.1234C172.086 33.98 172.261 33.8698 172.453 33.8C172.646 33.7303 172.851 33.7026 173.055 33.7189C173.258 33.705 173.462 33.733 173.654 33.8013C173.847 33.8696 174.023 33.9767 174.173 34.1161C174.323 34.2554 174.443 34.4241 174.525 34.6118C174.608 34.7995 174.652 35.0022 174.655 35.2076C174.682 35.5508 174.691 35.8953 174.681 36.2395V42.06C175.706 42.2158 176.447 42.5974 176.484 43.6723C176.527 44.8009 175.871 45.4029 174.681 45.4673C174.681 46.8325 174.681 48.0686 174.681 49.3101C174.695 49.7815 174.684 50.2533 174.649 50.7235C174.644 50.9273 174.598 51.128 174.514 51.3134C174.43 51.4988 174.31 51.6653 174.16 51.8028C174.011 51.9402 173.835 52.0459 173.645 52.1135C173.454 52.1811 173.251 52.2092 173.049 52.1961C172.846 52.2052 172.642 52.1716 172.452 52.0974C172.262 52.0232 172.089 51.9099 171.945 51.7649C171.801 51.6199 171.688 51.4463 171.613 51.255C171.539 51.0637 171.505 50.8589 171.513 50.6537C171.47 49.2348 171.513 47.816 171.513 46.3971C171.513 46.1445 171.476 45.8919 171.444 45.4673C169.118 45.3491 166.809 45.4029 164.376 45.4673V54.6039C164.393 54.9028 164.393 55.2025 164.376 55.5014C164.31 55.8633 164.122 56.1913 163.845 56.4309C163.568 56.6705 163.217 56.8073 162.852 56.8186C162.487 56.8299 162.129 56.715 161.838 56.493C161.547 56.271 161.339 55.9552 161.251 55.5981C161.204 55.2131 161.186 54.825 161.198 54.4373C161.198 51.9489 161.198 49.4552 161.198 46.9668C161.198 46.5046 161.16 46.0424 161.134 45.4082C160.499 45.4082 159.955 45.4082 159.416 45.4082C158.317 45.3384 157.704 44.7042 157.752 43.7207C157.8 42.7371 158.387 42.2588 159.459 42.2212C159.992 42.2212 160.472 42.2212 161.118 42.2212C161.15 41.6838 161.192 41.2269 161.198 40.7701C161.198 39.0073 161.198 37.2499 161.198 35.4871C161.198 34.4122 161.704 33.8747 162.558 33.7619C162.79 33.7169 163.029 33.7267 163.256 33.7906C163.484 33.8545 163.693 33.9708 163.868 34.1302C164.044 34.2896 164.18 34.4879 164.266 34.7094C164.353 34.9308 164.387 35.1694 164.366 35.4065C164.398 37.1639 164.366 38.9267 164.366 40.6841V42.1406L171.503 42.1083Z" fill="#F4ECD6"/>
<path d="M97.0529 13.6619C97.4636 14.6293 97.9063 15.602 98.301 16.5963C98.4034 16.7956 98.4633 17.0142 98.477 17.2382C98.4907 17.4622 98.4578 17.6866 98.3805 17.897C98.3032 18.1074 98.1831 18.2993 98.028 18.4603C97.8729 18.6213 97.6861 18.7479 97.4796 18.832C96.6742 19.1868 95.8795 18.832 95.3941 17.8808C94.8607 16.7683 94.386 15.6182 93.8633 14.4519C91.4097 14.6669 89.1962 15.9675 86.556 15.7149C86.4813 16.2093 86.3799 16.7898 86.3159 17.3272C86.1932 18.4397 86.1026 19.5522 85.9692 20.6593C85.9325 21.0432 85.8408 21.4197 85.6972 21.7772C85.5921 22.0387 85.4111 22.2622 85.178 22.4185C84.9449 22.5748 84.6704 22.6566 84.3904 22.6533C84.0902 22.6873 83.787 22.6231 83.5258 22.4702C83.2645 22.3173 83.059 22.0837 82.9396 21.8041C82.789 21.4075 82.7096 20.9872 82.7049 20.5626C82.5212 15.277 83.0487 9.99073 84.2731 4.8478C84.4438 4.10076 84.5771 3.33759 84.7264 2.5798C84.7581 2.16585 84.9377 1.77753 85.232 1.48694C85.5263 1.19635 85.9152 1.02322 86.3266 0.999719C87.0153 0.819629 87.7429 0.86233 88.4062 1.12178C89.0696 1.38123 89.6351 1.84429 90.0229 2.44544C91.6498 4.75106 93.2232 7.09968 94.8234 9.43218C95.0421 9.74927 95.2181 10.0879 95.3994 10.3888C97.6663 10.4802 98.4664 11.7486 97.0529 13.6619ZM86.8493 12.7482L92.0551 11.4315C91.3831 9.61491 88.7055 5.74533 87.6654 5.08428C87.484 6.6966 87.2973 8.24981 87.132 9.81914C87.0307 10.7113 86.956 11.6035 86.8493 12.7482Z" fill="#F4ECD6"/>
<path d="M254.06 36.4814C255.334 36.5943 256.609 36.6803 257.873 36.8308C258.94 36.9544 259.575 37.6692 259.473 38.599C259.372 39.5287 258.577 40.1522 257.42 40.0017C254.93 39.6214 252.394 39.6723 249.92 40.1522C248.712 40.4008 247.528 40.7606 246.384 41.2271C245.733 41.528 245.165 41.9857 244.731 42.5599C244.593 42.7018 244.493 42.876 244.439 43.0669C244.386 43.2578 244.38 43.4591 244.424 43.6526C244.467 43.8461 244.558 44.0255 244.688 44.1744C244.818 44.3234 244.983 44.4372 245.168 44.5054C245.985 44.8572 246.836 45.122 247.707 45.2955C248.448 45.4729 249.232 45.5051 249.963 45.7093C251.585 46.201 253.02 47.1805 254.074 48.5166C255.129 49.8528 255.753 51.4817 255.862 53.1851C255.99 55.5391 254.764 57.2643 252.47 57.8071C250.133 58.3425 247.703 58.2983 245.387 57.6782C244.395 57.4309 244.011 56.829 244.16 55.8938C244.184 55.679 244.252 55.4716 244.36 55.2849C244.468 55.0982 244.613 54.9363 244.787 54.8098C244.961 54.6832 245.159 54.5947 245.369 54.55C245.579 54.5053 245.796 54.5054 246.005 54.5502C246.848 54.6362 247.686 54.8404 248.534 54.8727C249.469 54.9149 250.406 54.8736 251.334 54.7491C252.454 54.5879 252.795 54.088 252.587 52.9594C252.219 50.9547 251.158 49.4875 249.152 48.8802C248.422 48.6599 247.648 48.5793 246.907 48.4019C245.988 48.2327 245.085 47.9845 244.208 47.6602C240.826 46.1715 240.181 42.3288 242.837 39.7544C243.782 38.8808 244.905 38.2259 246.128 37.8358C248.687 36.9746 251.362 36.5178 254.06 36.4814Z" fill="#F4ECD6"/>
<path d="M45.7415 3.76215C47.4544 2.67162 49.4633 2.14913 51.4861 2.26806C51.8276 2.27291 52.1675 2.31617 52.4995 2.39704C52.8526 2.48741 53.1644 2.69645 53.3836 2.98961C53.6028 3.28277 53.7161 3.6425 53.7049 4.00937C53.6888 4.37871 53.5433 4.73036 53.2943 5.0019C53.0454 5.27345 52.7089 5.44734 52.3448 5.49271C52.007 5.51847 51.6674 5.50947 51.3314 5.46585C49.0752 5.35836 47.3097 6.272 45.6989 8.22291C46.2027 8.30834 46.7137 8.34255 47.2243 8.32503C48.4831 8.1208 49.7366 7.8897 50.958 7.58335C52.0515 7.31463 52.6862 7.49736 53.0915 8.37339C53.4969 9.24942 53.2302 10.018 52.2168 10.593C51.4381 11.0337 50.6167 11.4422 49.8806 11.9151C49.2914 12.2622 48.7392 12.6692 48.2324 13.1298C46.3496 14.9463 46.2429 14.7421 47.507 17.6443C49.3099 17.5475 51.1767 17.4508 53.0382 17.3379C53.5716 17.3057 54.1423 17.1982 54.6917 17.1928C55.078 17.1734 55.4573 17.3015 55.7539 17.5516C56.0505 17.8017 56.2426 18.1553 56.2918 18.5418C56.3311 18.7334 56.3314 18.9311 56.2929 19.1228C56.2543 19.3146 56.1777 19.4965 56.0676 19.6577C55.9575 19.8188 55.8161 19.9559 55.6521 20.0606C55.4881 20.1653 55.3047 20.2355 55.1131 20.267C53.7316 20.5088 52.3288 20.6217 50.926 20.7507C49.4535 20.9319 47.9717 21.0252 46.4883 21.0302C45.3202 20.9925 44.0934 20.7937 43.2133 19.837C42.842 19.4411 42.5878 18.9486 42.4794 18.4149C42.371 17.8812 42.4128 17.3277 42.5999 16.8166C43.2453 14.9571 42.9253 13.1889 42.5572 11.3831C42.4506 10.8833 42.3012 10.3942 42.1839 9.89974C42.0997 9.61312 42.0513 9.31702 42.0399 9.01833C42.1003 7.61023 42.1732 6.20214 42.2585 4.79405C42.3226 3.75678 42.7919 3.0366 43.6187 3.06885C44.2427 3.10109 44.8508 3.45581 45.7415 3.76215Z" fill="#F4ECD6"/>
<path d="M128.496 6.1216C128.229 5.99799 128.032 5.93348 127.856 5.826C126.554 5.0467 126.565 3.67623 127.856 2.87007C128.14 2.72384 128.374 2.49552 128.528 2.21439C128.632 1.88472 128.839 1.59755 129.117 1.39528C129.396 1.19301 129.731 1.08638 130.075 1.09113C130.419 1.0596 130.764 1.14953 131.05 1.34557C131.336 1.54161 131.545 1.83159 131.643 2.16602C131.702 2.29708 131.771 2.42293 131.851 2.54223C132.918 2.70347 134.022 2.83245 135.104 3.04205C136.753 3.29922 138.331 3.89758 139.74 4.79948C140.412 5.21387 140.995 5.76057 141.453 6.40695C141.911 7.05333 142.236 7.78612 142.406 8.56157C142.806 10.5125 142.316 12.1571 140.7 13.3502C139.772 14.0327 138.774 14.6132 137.793 15.2205C136.05 16.2954 134.303 17.3703 132.55 18.4451C132.302 18.5586 132.088 18.7336 131.927 18.9536C131.765 19.1737 131.662 19.4315 131.627 19.7027C131.445 20.9926 130.208 21.4817 129.125 20.7776C128.766 20.5475 128.425 20.2887 128.106 20.0037C127.918 19.8621 127.763 19.6804 127.652 19.4715C127.541 19.2626 127.477 19.0317 127.465 18.7952C127.453 18.5587 127.493 18.3223 127.581 18.103C127.67 17.8836 127.806 17.6867 127.978 17.5261C128.141 17.3918 128.272 17.2239 128.364 17.0338C128.456 16.8437 128.507 16.6358 128.512 16.4243C128.49 13.0385 128.496 9.64722 128.496 6.1216ZM131.824 5.86362C131.557 7.98114 131.643 14.0811 131.963 15.0378C134.219 13.6404 136.47 12.2753 138.683 10.8565C138.85 10.7562 138.994 10.6222 139.107 10.463C139.22 10.3037 139.298 10.1226 139.338 9.93117C139.377 9.73973 139.377 9.54209 139.337 9.35074C139.297 9.1594 139.218 8.97852 139.105 8.81955C138.776 8.22817 138.307 7.72787 137.739 7.36309C135.92 6.30433 133.931 6.02485 131.824 5.86362Z" fill="#F4ECD6"/>
<path d="M210.717 11.7055C211.133 9.55574 211.56 7.34685 211.949 5.16484C212.093 4.36405 212.152 3.55252 212.264 2.74098C212.295 2.44407 212.354 2.15078 212.44 1.86495C212.538 1.48843 212.771 1.16194 213.094 0.948539C213.418 0.735135 213.808 0.649937 214.19 0.70939C214.572 0.768843 214.918 0.968744 215.162 1.27048C215.406 1.57222 215.531 1.9544 215.512 2.34327C215.466 3.15718 215.376 3.96806 215.245 4.77251C214.735 8.42353 213.969 12.0335 212.952 15.5751C212.894 15.7815 212.825 15.9843 212.744 16.1824C212.264 17.3809 210.637 17.6496 209.949 16.6231C209.415 15.8062 208.743 15.0645 208.194 14.2476C207.292 12.8986 206.439 11.512 205.564 10.1416C205.388 9.87283 205.196 9.60412 204.924 9.22253C204.599 11.1143 204.354 12.8341 203.996 14.5325C203.74 15.7042 203.41 16.8584 203.009 17.9882C202.914 18.3476 202.694 18.6604 202.388 18.8687C202.082 19.0771 201.712 19.1671 201.345 19.1222C201.1 19.0986 200.864 19.0184 200.655 18.8878C200.445 18.7571 200.269 18.5796 200.139 18.369C200.009 18.1584 199.929 17.9204 199.905 17.6735C199.881 17.4266 199.914 17.1775 200.001 16.9456C200.247 15.9943 200.567 15.0591 200.791 14.1025C201.581 10.8906 201.83 7.56771 201.527 4.2727C201.457 3.60627 201.42 2.93984 202.001 2.50451C202.321 2.25729 202.839 1.96706 203.132 2.05842C204.199 2.44001 205.388 2.67111 206.007 3.8911C207.143 6.14298 208.365 8.35724 209.565 10.5769C209.783 10.98 210.098 11.3454 210.333 11.727L210.717 11.7055Z" fill="#F4ECD6"/>
<path d="M131.312 38.0617C131.285 40.1094 131.157 41.9904 131.269 43.8607C131.44 46.6823 131.803 49.4931 132.043 52.3039C132.115 52.7703 132.161 53.2404 132.181 53.712C132.197 54.1029 132.062 54.4848 131.806 54.7788C131.55 55.0729 131.192 55.2566 130.805 55.2921C130.421 55.33 130.035 55.2262 129.72 55C129.406 54.7737 129.183 54.4403 129.093 54.0614C128.864 52.9274 128.693 51.7772 128.56 50.6325C128.082 46.891 127.914 43.1158 128.058 39.3462C128.058 38.9754 128.058 38.5991 128.058 38.1477C127.525 38.1477 127.12 38.0886 126.704 38.0886C124.831 38.0886 122.97 38.0886 121.082 38.0886C119.908 38.0886 119.322 37.5511 119.29 36.5407C119.264 36.3132 119.29 36.0828 119.365 35.8667C119.44 35.6505 119.562 35.4539 119.722 35.2915C119.882 35.1291 120.077 35.005 120.291 34.9282C120.505 34.8514 120.733 34.8239 120.959 34.8478C125.76 34.8156 130.56 34.8478 135.398 34.8478C135.822 34.8321 136.235 34.987 136.546 35.2782C136.858 35.5695 137.041 35.9734 137.057 36.401C137.072 36.8286 136.918 37.245 136.629 37.5584C136.34 37.8719 135.94 38.0568 135.515 38.0725C134.187 38.1047 132.87 38.0617 131.312 38.0617Z" fill="#F4ECD6"/>
<path d="M94.9834 45.5374C93.5166 45.8975 92.7219 44.9999 91.9538 44.0594C90.263 41.958 88.5562 39.8728 86.8867 37.7552C86.5989 37.3926 86.4145 36.9578 86.3533 36.4976C86.3389 36.1927 86.4163 35.8905 86.5752 35.6306C86.7342 35.3707 86.9673 35.1653 87.2441 35.0412C87.4902 34.9045 87.7714 34.8457 88.0512 34.8726C88.3309 34.8994 88.5961 35.0106 88.8122 35.1916C89.1638 35.5005 89.4756 35.8526 89.7403 36.2396C91.565 38.6968 93.5331 41.0424 95.6342 43.264C95.9809 42.1193 96.2849 41.1142 96.5889 40.1361C96.7383 39.6417 96.8716 39.1418 97.0583 38.6635C97.1216 38.448 97.229 38.2482 97.3735 38.077C97.5179 37.9057 97.6964 37.7668 97.8973 37.6691C98.0982 37.5715 98.3171 37.5172 98.54 37.5098C98.763 37.5024 98.985 37.5421 99.1918 37.6263C100.019 37.9218 100.36 38.599 100.083 39.6148C99.5119 41.6786 98.8291 43.7155 98.3011 45.79C97.2343 49.9014 96.1942 54.0129 95.2821 58.1512C94.9728 59.5646 94.1194 60.1128 93.2553 59.9623C92.2525 59.7904 91.7992 58.8875 92.1192 57.5224C92.9993 53.7603 93.9167 49.9982 94.8128 46.2683C94.8821 46.0748 94.9194 45.8652 94.9834 45.5374Z" fill="#F4ECD6"/>
<path d="M167.683 9.22241C167.683 7.28762 167.683 5.3582 167.683 3.42879C167.641 3.08259 167.719 2.73216 167.905 2.43786C168.091 2.14356 168.373 1.92382 168.702 1.81646C168.922 1.73408 169.157 1.7014 169.391 1.72074C169.625 1.74009 169.851 1.81099 170.055 1.92842C170.259 2.04584 170.434 2.20692 170.569 2.40025C170.704 2.59359 170.795 2.81446 170.836 3.04721C170.884 3.29861 170.905 3.55442 170.9 3.81037C170.9 7.41481 170.9 11.021 170.9 14.6291C170.907 14.8444 170.898 15.06 170.873 15.274C170.869 15.4902 170.819 15.7028 170.726 15.8979C170.634 16.093 170.501 16.266 170.337 16.4054C170.173 16.5447 169.981 16.6472 169.775 16.7061C169.568 16.7649 169.352 16.7787 169.14 16.7466C168.935 16.7493 168.732 16.7083 168.545 16.6262C168.357 16.5441 168.189 16.4229 168.052 16.2705C167.914 16.1181 167.81 15.9381 167.746 15.7422C167.683 15.5463 167.662 15.3391 167.683 15.1343C167.667 13.1672 167.689 11.1948 167.683 9.22241Z" fill="#F4ECD6"/>
</g>
<defs>
<clipPath id="clip0_500_1747">
<rect width="259" height="60" fill="white" transform="translate(0.5)"/>
</clipPath>
</defs>
</svg>
