<?xml version="1.0" encoding="utf-8"?>
<!-- Generator: Adobe Illustrator 25.0.1, SVG Export Plug-In . SVG Version: 6.00 Build 0)  -->
<svg version="1.0" id="Layer_1" xmlns="http://www.w3.org/2000/svg" xmlns:xlink="http://www.w3.org/1999/xlink" x="0px" y="0px"
	 viewBox="0 0 1197.7 865.6" style="enable-background:new 0 0 1197.7 865.6;" xml:space="preserve">
<style type="text/css">
	.st0{fill:#D32531;}
</style>
<path class="st0" d="M291.3,586.6c-4.4,1.4-9,2.2-13.6,2.5l-16.2,1.1c-34.8-75.2-43.7-159.9-25.1-240.7c5.7,9.7,16.1,15.6,27.3,15.8
	c13.6,0,28.4-6.1,34.8-14.4c1.4-1.5,2.1-3.4,2.2-5.4c0-3.6-1.8-5.7-3.6-8.3c-1.5-2.2-2.2-4.9-2.2-7.5c0-7.2,10.8-16.2,20.8-20.1
	c12-4.6,24.4-8.1,37-10.4l-44.5,268.3C306.4,578.3,299.6,583.7,291.3,586.6z M445.7,476.3c40.9,140.1,161.6,238.1,344.1,238.1
	c18.9,0.1,37.7-1.1,56.4-3.6c-68.1,60.8-156.2,94.3-247.5,94.1c-131.8,0-248.5-69.3-314.6-173.5c19.7-1,39.5-1.6,59.3-1.8
	c32.7,0,65.7,1.4,95.5,3.2l8.2-43.1l-20.5-1.4c-30.2-2.2-30.5-7.2-27.7-24.4l14.4-88h32.3L445.7,476.3z M471.6,241.8
	c-39.5,0-96.3,5-136.5,12.9c-24.1,4.7-56,14-77.9,30.9C338.5,96.9,557.4,9.8,746.1,91.1c53.5,23,100.8,58.3,138.2,103l-7.2,0.4
	c-28.7-1.4-55.7-9.7-87.3-9.7c-75.8,0-131.5,44.2-132.9,106.3c-0.4,35.2,11.5,60.3,30.2,79.4c9.3,9.7,20.5,18,32,25.1
	c11.1,7.9,23.4,15.8,35.6,23.7c27.3,18,42,29.8,41.7,58.5c-0.7,30.2-21.2,48.9-59.6,48.9c-58.5,0-85.5-26.9-97.7-84.8l-46.7,10.8
	c6.5,32.3,15.1,76.5,20.5,114.9l7.2,3.6c7.5-4.7,19.4-6.8,25.9-6.8c12.2,0,23.3,3.6,35.2,6.8c13.6,3.2,30.5,6.5,50.6,6.5
	c86.2,0,153-39.9,154.4-119.6c1.1-47.4-24.1-75.4-66.1-104.9l-44.9-32c-25.9-18-33.4-26.6-33-47c0-21.6,22.6-38.8,56.4-38.8
	c33,0,55.3,12.2,55,31.6c0,8.3-1.4,17.6-5.8,32.3h45.3c2.9-19.8,9-47.8,15.4-72.9c75.4,113.2,83.1,258.4,20.1,378.9
	c-16.5-27.3-53.9-42-86.9-42.4l-7.2,5.7c16.5,10.8,25.1,21.5,25.1,47.8c0,26.6-33,47.8-77.2,47.8c-116.7,0-208-88.7-245-204.7
	c48.8-16.5,94.5-55.3,94.5-115.6C631.8,270.5,564.6,241.8,471.6,241.8z M479.1,285.6c33.8,0,59.6,23.7,59.6,61.4
	c0,48.9-46.7,85.5-102.7,85.5h-15.4l23.3-144.7C455.6,286.4,467.4,285.7,479.1,285.6L479.1,285.6z"/>
</svg>
