<svg viewBox="0 0 16 16" fill="none" xmlns="http://www.w3.org/2000/svg">
<path fill-rule="evenodd" clip-rule="evenodd" d="M2 6.854C2 11.02 7.04 15 8 15C8.96 15 14 11.02 14 6.854C14 3.621 11.314 1 8 1C4.686 1 2 3.62 2 6.854Z" stroke="white" stroke-width="1.5" stroke-linecap="round" stroke-linejoin="round"/>
<path fill-rule="evenodd" clip-rule="evenodd" d="M9.5 6.5C9.5 6.89782 9.34196 7.27936 9.06066 7.56066C8.77936 7.84196 8.39782 8 8 8C7.60218 8 7.22064 7.84196 6.93934 7.56066C6.65804 7.27936 6.5 6.89782 6.5 6.5C6.5 6.10218 6.65804 5.72064 6.93934 5.43934C7.22064 5.15804 7.60218 5 8 5C8.39782 5 8.77936 5.15804 9.06066 5.43934C9.34196 5.72064 9.5 6.10218 9.5 6.5Z" stroke="white" stroke-width="1.5" stroke-linecap="round" stroke-linejoin="round"/>
</svg>
