<svg width="496" height="496" viewBox="0 0 496 496" fill="none" xmlns="http://www.w3.org/2000/svg">
<g clip-path="url(#clip0_106_12)">
<path d="M432.742 67.5325C432.742 14.3065 382.338 1 342.546 1V8.9839C366.421 8.9839 384.991 16.9678 384.991 35.5969C384.81 39.5028 383.821 43.3282 382.087 46.8298C380.352 50.3313 377.91 53.4323 374.916 55.9355C371.921 58.4387 368.441 60.2892 364.695 61.3695C360.949 62.4497 357.02 62.7359 353.157 62.2099C323.172 58.9959 293.738 51.8376 265.614 40.9195C235.769 29.6376 204.533 22.4753 172.766 19.6291C161.242 19.1682 149.742 21.0169 138.939 25.0669C128.136 29.1169 118.247 35.287 109.848 43.2164C101.45 51.1458 94.7122 60.6754 90.0284 71.2479C85.3446 81.8204 82.8089 93.2236 82.5697 104.791C82.3995 117.47 86.1285 129.893 93.2488 140.37C100.369 150.846 110.535 158.867 122.362 163.339L125.015 158.017C120.045 155.645 115.884 151.855 113.052 147.12C110.221 142.386 108.845 136.919 109.098 131.404C110.2 122.602 114.718 114.591 121.671 109.11C128.624 103.629 137.452 101.121 146.237 102.129C179.848 105.833 212.84 113.884 244.392 126.081C276.599 135.371 309.39 142.484 342.546 147.372V229.872L302.754 264.469V267.13L342.546 301.727V416.163C322.392 427.676 299.393 433.214 276.226 432.131C256.915 433.149 237.62 429.858 219.729 422.495C201.839 415.132 185.799 403.88 172.766 389.55L281.531 336.324V150.033L148.89 208.581C163.736 176.558 187.746 149.692 217.864 131.404L215.211 126.081C173.623 136.21 136.421 159.57 109.165 192.669C81.9091 225.768 66.0646 266.829 64 309.711C64.1364 359.076 83.7446 406.381 118.54 441.287C153.336 476.194 200.489 495.865 249.697 496.002C272.559 496.336 295.258 492.109 316.478 483.567C337.697 475.025 357.012 462.338 373.303 446.244C389.593 430.149 402.532 410.968 411.37 389.814C420.208 368.659 424.767 345.954 424.783 323.017H419.478C405.514 356.993 381.424 385.809 350.505 405.518V296.404L392.95 261.808V259.146L353.157 224.549V144.71C363.521 145.229 373.88 143.608 383.594 139.948C393.308 136.288 402.169 130.667 409.63 123.432C417.09 116.197 422.991 107.503 426.966 97.8875C430.942 88.2723 432.908 77.9407 432.742 67.5325ZM201.947 360.276L170.113 376.243C149.139 346.876 138.839 311.18 140.932 275.114C140.782 256.19 143.465 237.351 148.89 219.227L204.599 195.275L201.947 360.276Z" fill="white"/>
</g>
<defs>
<clipPath id="clip0_106_12">
<rect width="496" height="496" fill="white"/>
</clipPath>
</defs>
</svg>
