<svg width="496" height="496" viewBox="0 0 496 496" fill="none" xmlns="http://www.w3.org/2000/svg">
<g clip-path="url(#clip0_106_3)">
<path fill-rule="evenodd" clip-rule="evenodd" d="M0 248C0 111.1 111.1 0 248 0C384.9 0 496 111.1 496 248C496 384.9 384.9 496 248 496C111.1 496 0 384.9 0 248ZM393.7 219.2C398.2 221.8 401.4 223.1 406.6 223.1C418.8 223.1 429.8 213.4 429.8 199.8C429.8 187.9 424.7 181.7 416.9 177.2C361 144.6 284.5 129.4 211.5 129.4C168.6 129.4 129.2 134.3 94.0001 144.6C85.0001 147.2 76.6001 154.9 76.6001 168.5C76.6001 181.8 86.7001 192.1 99.9001 192.1C103.903 192.1 107.698 190.987 110.935 190.038C111.58 189.849 112.202 189.666 112.8 189.5C195.2 166.5 322.5 176.7 393.7 219.2ZM364.633 295.817C367.791 297.533 371.042 299.3 375.6 299.3C386.5 299.3 394.9 290.6 395 279.8C395 271.1 391.8 264.9 383.7 260.1C334.3 230.7 271.6 214.6 206.7 214.6C165.1 214.6 136.7 220.4 108.9 228.2C98.6001 231.1 93.4001 238.2 93.4001 248.9C93.4001 259.6 102.1 268.3 112.8 268.3C116.11 268.3 118.392 267.597 121.277 266.707C122.315 266.388 123.431 266.044 124.7 265.7C207.6 243.2 300.8 258.1 363.3 295.1C363.745 295.335 364.188 295.576 364.633 295.817ZM338 361.3C341.9 363.6 344.5 364.9 348.7 364.9C356.8 364.9 363.9 358.6 363.9 349.5C363.9 340.4 360.3 336.9 354.2 333C282.8 290.3 199.1 288.7 117.2 306.8C109.7 308.4 103.6 313.3 103.6 323.6C103.6 331.7 109.7 339.4 119.4 339.4C121.677 339.4 125.311 338.413 128.655 337.505C129.57 337.257 130.463 337.015 131.3 336.8C203 322.1 275.6 323.7 338 361.3Z" fill="white"/>
</g>
<defs>
<clipPath id="clip0_106_3">
<rect width="496" height="496" fill="white"/>
</clipPath>
</defs>
</svg>
