<svg width="496" height="496" viewBox="0 0 496 496" fill="none" xmlns="http://www.w3.org/2000/svg">
<g clip-path="url(#clip0_106_8)">
<path d="M248.01 0.871948C180.896 0.871948 172.474 1.16542 146.114 2.36502C119.806 3.56977 101.849 7.7349 86.136 13.8462C69.8827 20.1582 56.0954 28.6018 42.3597 42.3431C28.6136 56.0793 20.1703 69.867 13.8378 86.1157C7.71129 101.834 3.54113 119.797 2.35701 146.096C1.17804 172.456 0.869141 180.884 0.869141 248C0.869141 315.116 1.16775 323.513 2.36217 349.873C3.57203 376.182 7.73704 394.14 13.843 409.853C20.16 426.107 28.6033 439.895 42.3442 453.631C56.0748 467.378 69.8621 475.842 86.1051 482.154C101.828 488.265 119.791 492.43 146.094 493.635C172.453 494.835 180.871 495.128 247.979 495.128C315.098 495.128 323.495 494.835 349.855 493.635C376.163 492.43 394.141 488.265 409.864 482.154C426.112 475.842 439.879 467.378 453.61 453.631C467.356 439.895 475.799 426.107 482.131 409.859C488.206 394.14 492.377 376.177 493.612 349.879C494.796 323.518 495.105 315.116 495.105 248C495.105 180.884 494.796 172.461 493.612 146.101C492.377 119.792 488.206 101.834 482.131 86.1208C475.799 69.867 467.356 56.0793 453.61 42.3431C439.863 28.5966 426.117 20.1531 409.849 13.8462C394.095 7.7349 376.127 3.56977 349.819 2.36502C323.459 1.16542 315.068 0.871948 247.933 0.871948H248.01ZM225.842 45.4065C232.421 45.3962 239.763 45.4065 248.01 45.4065C313.992 45.4065 321.812 45.6433 347.868 46.8275C371.962 47.9293 385.039 51.9554 393.75 55.3379C405.282 59.8171 413.504 65.1716 422.148 73.8211C430.797 82.4705 436.151 90.7081 440.641 102.241C444.023 110.942 448.054 124.019 449.151 148.114C450.335 174.165 450.593 181.991 450.593 247.943C450.593 313.896 450.335 321.721 449.151 347.773C448.049 371.868 444.023 384.945 440.641 393.646C436.162 405.179 430.797 413.39 422.148 422.035C413.499 430.684 405.287 436.039 393.75 440.518C385.049 443.916 371.962 447.932 347.868 449.034C321.817 450.218 313.992 450.475 248.01 450.475C182.024 450.475 174.204 450.218 148.153 449.034C124.059 447.921 110.982 443.895 102.266 440.513C90.7335 436.034 82.4962 430.679 73.8469 422.03C65.1977 413.38 59.8434 405.163 55.3541 393.625C51.9716 384.924 47.9405 371.847 46.8439 347.752C45.6597 321.701 45.4229 313.875 45.4229 247.882C45.4229 181.888 45.6597 174.104 46.8439 148.052C47.9456 123.957 51.9716 110.88 55.3541 102.169C59.8331 90.6361 65.1977 82.3985 73.8469 73.749C82.4962 65.0995 90.7335 59.7451 102.266 55.2556C110.977 51.8576 124.059 47.8417 148.153 46.7348C170.95 45.7051 179.784 45.3962 225.842 45.3447V45.4065ZM379.921 86.44C363.549 86.44 350.267 99.7077 350.267 116.085C350.267 132.457 363.549 145.74 379.921 145.74C396.293 145.74 409.576 132.457 409.576 116.085C409.576 99.7129 396.293 86.4297 379.921 86.4297V86.44ZM248.01 121.089C177.926 121.089 121.104 177.913 121.104 248C121.104 318.087 177.926 374.885 248.01 374.885C318.095 374.885 374.896 318.087 374.896 248C374.896 177.913 318.095 121.089 248.01 121.089ZM248.01 165.624C293.501 165.624 330.384 202.503 330.384 248C330.384 293.492 293.501 330.376 248.01 330.376C202.514 330.376 165.637 293.492 165.637 248C165.637 202.503 202.514 165.624 248.01 165.624Z" fill="white"/>
</g>
<defs>
<clipPath id="clip0_106_8">
<rect width="496" height="496" fill="white"/>
</clipPath>
</defs>
</svg>
