<svg width="800" height="592" viewBox="0 0 800 592" fill="none" xmlns="http://www.w3.org/2000/svg">
<g clip-path="url(#clip0_107_2)">
<path d="M613.325 591.953C716.423 591.953 800 508.353 800 405.219C800 302.12 716.423 218.52 613.325 218.52C613.325 218.52 614.228 149.158 670.578 49.3265C676.837 29.3234 665.68 8.02182 645.664 1.79838C631.462 -2.6688 616.519 1.6734 606.869 11.7812C477.298 153.5 426.58 320.294 426.58 405.219C426.58 508.353 510.155 591.953 613.325 591.953Z" fill="#0D0A0B"/>
<path d="M186.747 591.953C289.845 591.953 373.422 508.352 373.422 405.219C373.422 302.12 289.845 218.52 186.747 218.52C186.747 218.52 187.65 149.158 244 49.3265C250.259 29.3234 239.1 8.02185 219.086 1.79841C204.884 -2.66877 189.941 1.67343 180.292 11.7812C50.7203 153.5 -3.69803e-05 320.294 -2.95559e-05 405.219C-2.05396e-05 508.353 83.5766 591.953 186.747 591.953Z" fill="#0D0A0B"/>
</g>
<defs>
<clipPath id="clip0_107_2">
<rect width="800" height="592" fill="white" transform="translate(800 592) rotate(180)"/>
</clipPath>
</defs>
</svg>
