<?xml version="1.0" encoding="UTF-8" standalone="no"?>
<!-- Created with Inkscape (http://www.inkscape.org/) -->

<svg
   width="129.24977mm"
   height="125.19391mm"
   viewBox="0 0 129.24977 125.19391"
   version="1.1"
   id="svg5"
   inkscape:version="1.1 (c68e22c387, 2021-05-23)"
   sodipodi:docname="Good_Morning_America_2021.svg"
   xmlns:inkscape="http://www.inkscape.org/namespaces/inkscape"
   xmlns:sodipodi="http://sodipodi.sourceforge.net/DTD/sodipodi-0.dtd"
   xmlns="http://www.w3.org/2000/svg"
   xmlns:svg="http://www.w3.org/2000/svg">
  <sodipodi:namedview
     id="namedview7"
     pagecolor="#505050"
     bordercolor="#eeeeee"
     borderopacity="1"
     inkscape:pageshadow="0"
     inkscape:pageopacity="0"
     inkscape:pagecheckerboard="0"
     inkscape:document-units="mm"
     showgrid="false"
     inkscape:zoom="0.33386194"
     inkscape:cx="879.10591"
     inkscape:cy="537.6474"
     inkscape:window-width="1366"
     inkscape:window-height="715"
     inkscape:window-x="-8"
     inkscape:window-y="-8"
     inkscape:window-maximized="1"
     inkscape:current-layer="svg5" />
  <defs
     id="defs2">
    <style
       type="text/css"
       id="style3156">
   
    .fil0 {fill:#140F10;fill-rule:nonzero}
   
  </style>
  </defs>
  <style
     id="style3151">
		tspan { white-space:pre }
		.shp0 { fill: #000000 } 
	</style>
  <path
     fill="#ffc82a"
     d="M 64.626825,125.19391 C 28.926486,125.19391 0,97.16804 0,62.59592 0,28.02794 28.926486,0 64.626825,0 c 35.681725,0 64.622945,28.02794 64.622945,62.59592 0,34.57212 -28.94122,62.59799 -64.622945,62.59799 z"
     id="path3087"
     style="stroke:none;stroke-width:0.12925"
     sodipodi:nodetypes="ccccc" />
  <path
     fill="#2b51a3"
     d="m 108.62525,68.75894 1.82721,-5.67174 1.7936,5.67174 z m 5.75421,6.22674 h 4.94677 l -7.03571,-17.68189 h -3.65764 l -7.03183,17.68176 h 4.89843 l 0.93034,-2.58177 6.04179,7e-5 z M 98.134052,68.41539 c -1.005047,1.69783 -2.417488,2.54454 -4.199585,2.54454 -1.289264,0 -2.413867,-0.48778 -3.370187,-1.45341 -0.945202,-0.97532 -1.41619,-2.15408 -1.41619,-3.53472 0,-1.29832 0.470988,-2.39694 1.412441,-3.29174 0.941456,-0.90035 2.092297,-1.35066 3.441019,-1.35066 1.838706,0 3.243265,0.89105 4.244691,2.67702 h 4.849579 c -0.58291,-2.16713 -1.7039,-3.88007 -3.366437,-5.16352 -1.670038,-1.28345 -3.583321,-1.92221 -5.750195,-1.92221 -2.600375,0 -4.823601,0.87981 -6.669416,2.63011 -1.842067,1.75043 -2.768661,3.88021 -2.768661,6.38533 0,2.62674 0.889368,4.84402 2.667846,6.66191 1.771238,1.81971 4.005191,2.72201 6.72551,2.72201 2.204355,0 4.117253,-0.61084 5.738949,-1.84957 1.621694,-1.23511 2.723554,-2.92156 3.332704,-5.05509 z M 82.92717,57.30366 h -4.461444 v 17.68189 h 4.461444 z m -15.587909,3.9809 h 1.251911 c 1.972869,0 2.962663,0.68373 2.962663,2.04563 0,0.77524 -0.272458,1.31887 -0.818148,1.63824 -0.526822,0.32519 -1.371084,0.48417 -2.510807,0.48417 h -0.885619 z m 3.516109,13.70099 h 5.544298 l -4.483414,-6.08276 c 1.30374,-0.34393 2.316285,-1.0274 3.037756,-2.03426 0.739437,-1.01254 1.098234,-2.23072 1.098234,-3.65402 0,-2.18587 -0.825776,-3.83174 -2.465955,-4.93941 -0.941456,-0.64276 -2.491935,-0.97144 -4.632699,-0.97144 h -6.060653 v 17.68189 h 4.446064 l 1.3e-4,-5.69953 z M 60.038456,71.06075 H 54.56111 V 67.9912 h 5.477346 V 64.05877 H 54.56111 v -2.82656 h 5.477346 v -3.92868 h -9.923409 v 17.68202 h 9.923409 z m -27.18898,-7.7736 3.766338,11.6984 h 3.157184 l 3.762332,-11.6984 v 11.6984 h 4.255807 V 57.30366 H 41.708255 L 38.192532,68.11437 34.702789,57.30366 h -6.108862 v 17.68189 h 4.255549 z m -15.699842,5.47179 1.827205,-5.67174 1.800967,5.67174 z m 5.753813,6.22674 h 4.939408 L 20.811151,57.30379 H 17.16101 l -7.039202,17.68176 h 4.901927 l 0.919094,-2.58177 6.052767,7e-5 z M 83.932475,37.11821 v -7.33428 h 1.299995 c 1.210553,0 2.137272,0.31576 2.764909,0.94714 0.643017,0.63539 0.952702,1.53562 0.952702,2.70701 0,1.2629 -0.29146,2.18936 -0.903844,2.78533 -0.601657,0.60347 -1.521142,0.8948 -2.802524,0.8948 z m 6.362449,1.2461 c 1.285519,-1.2218 1.939264,-2.83394 1.939264,-4.82361 0,-2.13727 -0.653745,-3.80537 -1.968605,-4.99912 -0.665118,-0.60721 -1.412829,-1.03141 -2.226844,-1.25928 -0.717464,-0.19982 -1.655301,-0.29133 -2.802263,-0.29133 h -4.580741 v 12.98366 h 5.036605 c 1.023269,0 1.845169,-0.0953 2.476555,-0.29133 0.732586,-0.23175 1.442556,-0.67081 2.126029,-1.31899 z m -17.321277,-8.4046 c 0.945201,0 1.756116,0.33243 2.428731,0.99561 0.691099,0.66318 1.027534,1.47384 1.027534,2.42666 0,1.04615 -0.332817,1.9129 -1.01629,2.60038 -0.668998,0.68011 -1.494644,1.02004 -2.469962,1.02004 -0.95632,0 -1.782096,-0.34729 -2.488059,-1.05183 -0.710227,-0.70235 -1.061269,-1.55423 -1.061269,-2.56859 -1.31e-4,-0.95282 0.347551,-1.76348 1.046277,-2.42666 0.687219,-0.66318 1.531739,-0.99561 2.533038,-0.99561 z m -0.03012,10.24653 c 1.943142,0 3.590818,-0.67442 4.943029,-2.0287 1.293274,-1.30025 1.950379,-2.89003 1.950379,-4.77681 0,-1.8382 -0.698338,-3.41685 -2.076917,-4.73197 -1.352468,-1.27414 -2.952193,-1.91302 -4.801239,-1.91302 -1.920135,0 -3.56445,0.63888 -4.909554,1.91302 -1.34885,1.2797 -2.017329,2.83393 -2.017329,4.6685 -1.3e-4,1.94263 0.649866,3.56794 1.9465,4.88694 1.311239,1.32274 2.955039,1.98204 4.965131,1.98204 z M 58.510466,29.95971 c 0.949211,0 1.75237,0.33243 2.439847,0.99561 0.672616,0.66318 1.012545,1.47384 1.012545,2.42666 0,1.04615 -0.339929,1.9129 -1.008923,2.60038 -0.672358,0.68011 -1.494389,1.02004 -2.480693,1.02004 -0.94908,0 -1.778478,-0.34729 -2.48095,-1.05183 -0.698723,-0.70235 -1.057262,-1.55423 -1.057262,-2.56859 -1.31e-4,-0.95282 0.347166,-1.76348 1.04227,-2.42666 0.695105,-0.66318 1.531997,-0.99561 2.533166,-0.99561 z m -0.03347,10.24653 c 1.939006,0 3.601544,-0.67442 4.946775,-2.0287 1.296377,-1.30025 1.946503,-2.89003 1.946503,-4.77681 0,-1.8382 -0.694847,-3.41685 -2.084799,-4.73197 -1.341355,-1.27414 -2.929189,-1.91302 -4.78612,-1.91302 -1.931766,0 -3.56432,0.63888 -4.905675,1.91302 -1.345232,1.2797 -2.021596,2.83393 -2.021596,4.6685 0,1.94263 0.646508,3.56794 1.954128,4.88694 1.300253,1.32274 2.951808,1.98204 4.950784,1.98204 z M 44.249053,35.25572 h 2.858227 c -0.672355,1.18638 -1.685027,1.7786 -3.022764,1.7786 -0.937707,0 -1.755858,-0.36073 -2.454582,-1.07613 -0.702472,-0.71927 -1.046146,-1.57866 -1.046146,-2.59676 0,-0.93964 0.332428,-1.75043 1.016032,-2.42304 0.676234,-0.67443 1.505629,-1.01061 2.492193,-1.01061 1.008924,0 1.924142,0.42782 2.753797,1.27971 h 3.732473 c -0.530441,-1.37871 -1.382455,-2.46622 -2.54803,-3.27312 -1.139722,-0.80717 -2.447472,-1.20694 -3.89701,-1.20694 -1.913156,0 -3.545837,0.63901 -4.890811,1.92621 -1.352728,1.28707 -2.036329,2.84892 -2.036329,4.68337 0,1.93357 0.661242,3.5607 1.961494,4.90011 1.292756,1.33011 2.940563,1.99704 4.924547,1.99704 1.158335,0 2.215728,-0.2541 3.231888,-0.77899 1.02004,-0.51183 1.84194,-1.2218 2.48082,-2.12603 0.762057,-1.08725 1.147092,-2.35764 1.147092,-3.80343 0,-0.1887 -0.0037,-0.4728 -0.0411,-0.85938 l -6.661792,6e-5 z m 55.517558,15.17121 h 2.854609 c -0.68024,1.18625 -1.68128,1.78209 -3.015136,1.78209 -0.945205,0 -1.759738,-0.36409 -2.46221,-1.07587 -0.702602,-0.71553 -1.046146,-1.58241 -1.046146,-2.59676 0,-0.94714 0.336177,-1.7503 1.012541,-2.41929 0.680241,-0.67818 1.512999,-1.01449 2.495815,-1.01449 1.005176,0 1.924006,0.42795 2.753796,1.2797 h 3.73997 c -0.54544,-1.38413 -1.39331,-2.46944 -2.54415,-3.27286 -1.1586,-0.80897 -2.45885,-1.20874 -3.908517,-1.20874 -1.916901,0 -3.538082,0.64082 -4.898047,1.92802 -1.341355,1.28526 -2.01772,2.84892 -2.01772,4.68711 0,1.92996 0.642629,3.55695 1.939264,4.89262 1.311499,1.33386 2.948059,2.00453 4.935662,2.00453 1.154588,0 2.226978,-0.26702 3.239388,-0.77898 1.00168,-0.51558 1.83082,-1.23111 2.46996,-2.13353 0.77317,-1.08725 1.15407,-2.35002 1.15407,-3.80175 0,-0.18302 -0.0149,-0.47073 -0.0406,-0.85744 l -6.662565,6e-5 z m -15.688595,-2.50719 4.995116,7.2261 h 2.881105 V 42.15662 h -3.273379 v 7.21873 l -4.916791,-7.21873 h -2.96667 v 12.98935 h 3.280619 z M 79.39258,42.15662 h -3.272738 v 12.98935 h 3.272733 z m -7.532027,12.98922 h 2.884076 V 42.15662 h -3.276481 v 7.21873 l -4.928293,-7.21873 h -2.955426 v 12.98935 h 3.272605 l 6.3e-5,-7.22623 z M 55.812894,45.07469 h 0.907723 c 1.442167,0 2.155885,0.50447 2.155885,1.51507 0,0.57555 -0.198011,0.97519 -0.575291,1.21443 -0.3999,0.23524 -1.008793,0.35117 -1.842067,0.35117 h -0.64625 z m 2.570391,10.07128 h 4.046552 l -3.27687,-4.45175 c 0.960327,-0.25605 1.700153,-0.75495 2.23072,-1.49465 0.537938,-0.74719 0.799542,-1.64212 0.799542,-2.69007 0,-1.60658 -0.594032,-2.82088 -1.804586,-3.6336 -0.691229,-0.47823 -1.823199,-0.71928 -3.400044,-0.71928 h -4.446193 v 12.98935 h 3.280618 l -6.5e-5,-4.1811 z M 44.824337,45.13441 c 0.948953,0 1.755988,0.32881 2.439847,0.99212 0.676237,0.66693 1.019912,1.47758 1.019912,2.42485 0,1.05171 -0.339929,1.91859 -1.016033,2.60232 -0.668997,0.67998 -1.494646,1.02366 -2.492196,1.02366 -0.934085,0 -1.767232,-0.35311 -2.465955,-1.05171 -0.709969,-0.70441 -1.064887,-1.5581 -1.064887,-2.57427 -1.31e-4,-0.94727 0.351169,-1.75792 1.049895,-2.42485 0.68735,-0.66318 1.531997,-0.99212 2.529417,-0.99212 z m -0.02999,10.24692 c 1.942885,0 3.590561,-0.67456 4.939411,-2.02521 1.296634,-1.30026 1.942882,-2.8974 1.942882,-4.78432 0,-1.84193 -0.694975,-3.41684 -2.069935,-4.72834 -1.348722,-1.27389 -2.951806,-1.91871 -4.801112,-1.91871 -1.924141,0 -3.560832,0.64482 -4.902184,1.91871 -1.344846,1.2797 -2.021338,2.83393 -2.021338,4.67225 2.58e-4,1.93926 0.650384,3.56083 1.954385,4.8797 1.300384,1.32649 2.955427,1.98592 4.957891,1.98592 z m -15.92021,-0.23536 h 2.316544 l 2.757545,-8.58426 v 8.58426 h 3.131073 V 42.15662 h -4.46868 l -2.581895,7.94899 -2.563021,-7.94899 h -4.49117 v 12.98935 h 3.131207 l -6.5e-5,-8.58426 z"
     id="path3089"
     style="stroke:none;stroke-width:0.12925"
     sodipodi:nodetypes="cccccccccccccccccccccccccccccccccccccccccccccccccccccccccccccccccccccccccccccccccccccccccccccccccccccccccccccccccccccccccccccccccccccccccccccccccccccccccccccccccccccccccccccccccccccccccccccccccccccccccccccccccccccccccccccccccccccccccccccccccccccccccccccccccccccccccccc" />
  <style
     type="text/css"
     id="style2">
	.st0{fill-rule:evenodd;clip-rule:evenodd;fill:#202033;}
	.st1{fill-rule:evenodd;clip-rule:evenodd;fill:#FFFFFF;}
</style>
  <path
     id="path853"
     style="clip-rule:evenodd;fill:#202033;fill-rule:evenodd;stroke:none;stroke-width:0.02952"
     class="st0"
     d="m 79.553,93.353 a 14.76,14.76 0 0 1 -14.76,14.76 14.76,14.76 0 0 1 -14.76,-14.76 14.76,14.76 0 0 1 14.76,-14.76 14.76,14.76 0 0 1 14.76,14.76 z" />
  <path
     class="st1"
     d="m 60.724258,87.314093 v 6.043925 c 0,2.237025 1.813413,4.050439 4.050439,4.050439 2.237026,0 4.050439,-1.813414 4.050439,-4.050439 0,-2.237026 -1.813413,-4.050439 -4.050439,-4.050439 -0.617558,8.85e-4 -1.256962,0.197488 -1.781237,0.552614 v -2.5461 z m 4.050439,4.262688 c 0.983902,0 1.781237,0.79763 1.781237,1.781532 0,0.983902 -0.797631,1.781237 -1.781237,1.781237 -0.983902,0 -1.781237,-0.797631 -1.781237,-1.781237 0,-0.984197 0.797335,-1.781532 1.781237,-1.781532 z m -4.616633,5.76319 v -3.981953 c 0,-2.237026 -1.813413,-4.050439 -4.050439,-4.050439 -2.237026,0 -4.050439,1.813413 -4.050439,4.050439 0,2.237025 1.813413,4.050439 4.050439,4.050439 0.660067,-8.86e-4 1.344341,-0.281326 1.826402,-0.747742 v 0.679256 z m -4.050439,-2.200716 c -0.983902,0 -1.781237,-0.797631 -1.781237,-1.781532 0,-0.983902 0.797631,-1.781237 1.781237,-1.781237 0.983902,0 1.781237,0.79763 1.781237,1.781237 0,0.984196 -0.797631,1.781532 -1.781237,1.781532 z m 17.351856,-5.831676 c -2.237026,0 -4.050439,1.813413 -4.050439,4.050439 0,2.237025 1.813413,4.050439 4.050439,4.050439 2.026548,-0.0024 3.739594,-1.502273 4.009406,-3.510518 h -2.311711 c -0.22878,0.719992 -0.902131,1.241611 -1.697695,1.241611 -0.983902,0 -1.781237,-0.797631 -1.781237,-1.781237 0,-0.983902 0.797631,-1.781237 1.781237,-1.781532 0.795564,0 1.46921,0.521618 1.697695,1.241611 h 2.312007 C 77.199075,90.809556 75.486029,89.30994 73.459481,89.307579 Z"
     id="path5"
     style="stroke:none;stroke-width:0.02952" />
</svg>
