<svg xmlns="http://www.w3.org/2000/svg" width="1674.9" height="289.4" viewBox="0 0 1674.9 289.4"><path d="M0,2H19.31V63.23h80.74V2h19.31V139.84H100.05V74.65H19.31v65.19H0V2" fill="#211d1d"/><path d="M275.25,2v84.9c0,36-23.64,54.94-54.36,54.94-38,0-57.32-21.26-57.32-54.94V2h19.31V84.69c0,28.36,15.17,43.72,39.59,43.72,24.62,0,39-13.58,39-43.72V2h13.78" fill="#211d1d"/><path d="M360,13.2H338.77V128.61H361c36.24,0,56.33-21.08,56.33-58.1,0-35.26-20.09-57.31-57.32-57.31ZM319.48,139.84V2h42.15c47.86,0,77,26.39,77,68.55,0,43.53-29.73,69.33-75.63,69.33H319.48" fill="#211d1d"/><path d="M522.69,80.36l-18.9-5.12C480.35,68.93,467,59.88,467,38.41,467,16,487.44,0,515,0c23,0,41,10.64,49.63,25.22L555,34.48c-7.88-14.19-22.26-22.65-40-22.65-17.33,0-29.75,8.46-29.75,22.45,0,13.39,8.47,18.71,25.6,23.24l18.52,4.92c23,6.11,37.23,16.35,37.23,36.83,0,26.78-23.64,42.54-51,42.54-24.23,0-46.48-11.61-55.74-29.93l9.86-8.27c10.82,18.32,28.36,25.8,45.89,25.8,18.71,0,32.69-8.26,32.69-24.81,0-14.2-10-20.11-25.6-24.24" fill="#211d1d"/><path d="M662.29,130.77c29,0,46.88-23.24,46.88-59.86S691.25,11,662.29,11s-46.88,23.24-46.88,59.88S633.35,130.77,662.29,130.77ZM662.29,0c39.39,0,68.54,31.12,68.54,70.91s-29.15,70.9-68.54,70.9-68.73-31.12-68.73-70.9S622.91,0,662.29,0" fill="#211d1d"/><path d="M865.47,2V74.72L783.73,2H765.41V139.73H779.2V25.6l86.27,78.15v36h13.78V2H865.47" fill="#211d1d"/><path d="M1071.47,2h15.16l-51.8,80.36v57.51h-19.31V82.33L963.73,2h22.66l42.73,66.78L1071.47,2" fill="#211d1d"/><path d="M1115.84,85.87h47.87l-24-56.72Zm52.6,11h-57.12l-18.12,42.93h-14l59.68-139h9.26l59.48,139.05h-20.88l-18.31-42.93" fill="#211d1d"/><path d="M1255.88,67.56h29.93c18.91,0,34.47-6.69,34.47-28,0-18.71-14-26.2-34.47-26.2h-29.93Zm0,72.28h-19.31V2h53.18c28.36,0,51.6,9.86,51.6,37.23,0,24.81-20.88,33.88-39.4,34.27v.58c17.33,2.16,24.42,10,29.34,24.63l7.88,21.47a62.89,62.89,0,0,0,11.23,19.69h-21.67c-3.93-5.51-7.48-14.19-8.86-18.12l-8.27-22.25c-5.32-15-10.83-20.48-29-20.48h-26.79v60.85" fill="#211d1d"/><path d="M1421.51,13.2h-21.27V128.61h22.25c36.24,0,56.34-21.08,56.34-58.1C1478.83,35.25,1458.73,13.2,1421.51,13.2Zm-40.58,126.64V2h42.15c47.87,0,77,26.39,77,68.55,0,43.53-29.73,69.33-75.62,69.33h-43.54" fill="#211d1d"/><path d="M1582.13,80.36l-18.9-5.12c-23.44-6.31-36.83-15.36-36.83-36.83,0-22.45,20.48-38.4,48-38.4,23,0,41,10.64,49.63,25.22l-9.64,9.25c-7.88-14.19-22.27-22.65-40-22.65-17.33,0-29.73,8.46-29.73,22.45,0,13.39,8.47,18.71,25.6,23.24l18.51,4.92c23.05,6.11,37.22,16.35,37.22,36.83,0,26.78-23.62,42.54-51,42.54-24.23,0-46.48-11.61-55.73-29.93l9.84-8.27c10.84,18.32,28.37,25.8,45.89,25.8,18.72,0,32.69-8.26,32.69-24.81,0-14.2-10-20.11-25.6-24.24" fill="#211d1d"/><path d="M581,238.68,581,288h-6l-31.36-37.88h-.08V288H537l0-49.36h6l31.36,37.88h.08V238.68H581" fill="#211d1d"/><path d="M643.93,265H624v17.23h34.84v5.83l-41.42,0V238.69l39.68,0v5.81H624v14.66h20V265" fill="#211d1d"/><path d="M691.11,238.71l12.24,39.45h.37l12.64-39.45h5L734,278.16h.45l12.26-39.45h6.8l-15.88,49.37h-6.74l-11.93-37h-.45l-12,37h-6.73l-15.87-49.36h7.19" fill="#211d1d"/><path d="M859.24,238.76,839,265v23.13H832.4V265l-20.25-26.24h8.32L836,259.16l15.58-20.4h7.71" fill="#211d1d"/><path d="M904.8,283.6a20.35,20.35,0,0,0,20.64-20.25c0-11-9.07-20-20.63-20a20.15,20.15,0,1,0,0,40.29Zm0-46.12c15.27,0,27.51,11.57,27.51,25.85,0,14.52-12.25,26.08-27.52,26.08s-27.36-11.57-27.36-26.08c0-14.29,12-25.85,27.37-25.85" fill="#211d1d"/><path d="M970.87,244.6v17.61l22.29,0c5.44,0,9.45-4,9.45-8.84a8.38,8.38,0,0,0-2.34-5.75c-2.42-2.43-5.36-3-8.78-3Zm-6.59,43.55V238.79h27.22c6.34,0,10.73,1.75,13.82,5a13.84,13.84,0,0,1,3.78,9.68c0,6.65-4.54,11.86-11.5,13.74l12.16,21h-7.48L991,268.05H970.85v20.11h-6.57" fill="#211d1d"/><path d="M1084.92,238.81l-19.65,18.82,23.8,30.54h-8.47L1060.51,262l-11.87,11.56v14.59h-6.57V238.8h6.57v27.44l28.2-27.43h8.08" fill="#211d1d"/><path d="M1659.33,24.13A11,11,0,0,1,1648.16,13a11.18,11.18,0,0,1,22.35,0A11,11,0,0,1,1659.33,24.13Zm0-21a9.6,9.6,0,0,0-9.82,9.88,9.83,9.83,0,1,0,19.65,0A9.62,9.62,0,0,0,1659.33,3.08ZM1656.89,19h-2.42V6.76h5.28c2.42,0,4.49.88,4.49,3.31,0,2.06-1.87,3-3.61,3v.05a2.79,2.79,0,0,1,2.74,2.12L1664,17a6.31,6.31,0,0,0,1,2h-2.69a6.93,6.93,0,0,1-.78-1.71l-.72-2a1.86,1.86,0,0,0-2.17-1.55h-1.76V19Zm0-6.52H1659c1.65,0,2.75-.63,2.75-2.28,0-1.45-1-2.17-2.75-2.17h-2.07Z" fill="#211d1d"/></svg>